<svg width="46" height="17" viewBox="0 0 46 17" fill="none" xmlns="http://www.w3.org/2000/svg">
<path opacity="0.1" fill-rule="evenodd" clip-rule="evenodd" d="M7 7.5L-3.0598e-07 7.5L-3.93402e-07 9.5L7 9.5L7 16.5L9 16.5L9 9.5L16 9.5L16 7.5L9 7.5L9 0.5L7 0.5L7 7.5Z" fill="#212121"/>
<path opacity="0.15" fill-rule="evenodd" clip-rule="evenodd" d="M24.1259 6.03707L24.1259 0.5H21.874L21.874 6.03696L17.6146 2.1461L16 3.54029L21.4296 8.50005L16 13.4598L17.6146 14.854L21.874 10.9632L21.874 16.5H24.1259V10.963L28.3854 14.854L30 13.4598L24.5704 8.50005L30 3.54029L28.3854 2.1461L24.1259 6.03707Z" fill="#212121"/>
<path fill-rule="evenodd" clip-rule="evenodd" d="M37 10.9141V16.5H39V10.9142L42.9497 14.8639L44.3639 13.4497L40.4142 9.5L46 9.5V7.5H40.4141L44.3639 3.55021L42.9497 2.13599L39 6.08568V0.5H37V6.08579L33.0502 2.13599L31.636 3.55021L35.5858 7.5H30V9.5L35.5857 9.5L31.636 13.4497L33.0502 14.8639L37 10.9141Z" fill="#212121"/>
</svg>
