<svg width="18" height="18" viewBox="0 0 18 18" fill="none" xmlns="http://www.w3.org/2000/svg">
<path fill-rule="evenodd" clip-rule="evenodd" d="M5.28717 2.28781C6.27173 1.30325 7.60709 0.750122 8.99948 0.750122C10.3919 0.750122 11.7272 1.30325 12.7118 2.28781C13.6964 3.27238 14.2495 4.60774 14.2495 6.00012C14.2495 8.51462 14.7873 10.0761 15.2829 10.9847C15.5317 11.441 15.7741 11.7402 15.9424 11.9179C16.0267 12.007 16.093 12.066 16.1329 12.0992C16.1529 12.1159 16.1663 12.1261 16.1721 12.1304C16.173 12.1311 16.1737 12.1316 16.1742 12.132C16.4431 12.3167 16.5621 12.6545 16.4673 12.9675C16.3715 13.2838 16.08 13.5001 15.7495 13.5001H2.24948C1.91898 13.5001 1.62743 13.2838 1.53166 12.9675C1.4369 12.6545 1.55588 12.3167 1.82475 12.132C1.82527 12.1316 1.82599 12.1311 1.82689 12.1304C1.83266 12.1261 1.84605 12.1159 1.86602 12.0992C1.90593 12.066 1.97222 12.007 2.05658 11.9179C2.2249 11.7402 2.46721 11.441 2.71606 10.9847C3.21168 10.0761 3.74948 8.51462 3.74948 6.00012C3.74948 4.60774 4.3026 3.27238 5.28717 2.28781ZM1.83233 12.1268C1.83239 12.1268 1.83244 12.1268 1.8325 12.1267C1.8325 12.1267 1.8325 12.1267 1.83249 12.1267L1.83233 12.1268ZM3.86147 12.0001H14.1375C14.0804 11.9066 14.0231 11.8076 13.9661 11.703C13.3367 10.5492 12.7495 8.73563 12.7495 6.00012C12.7495 5.00556 12.3544 4.05173 11.6511 3.34847C10.9479 2.64521 9.99404 2.25012 8.99948 2.25012C8.00492 2.25012 7.05109 2.64521 6.34783 3.34847C5.64457 4.05173 5.24948 5.00556 5.24948 6.00012C5.24948 8.73563 4.66228 10.5492 4.0329 11.703C3.97583 11.8076 3.91854 11.9066 3.86147 12.0001Z" fill="#212121"/>
<path fill-rule="evenodd" clip-rule="evenodd" d="M7.32594 15.1013C7.68424 14.8934 8.14318 15.0154 8.35102 15.3737C8.41695 15.4873 8.51158 15.5817 8.62544 15.6472C8.73929 15.7128 8.86838 15.7473 8.99977 15.7473C9.13116 15.7473 9.26025 15.7128 9.37411 15.6472C9.48796 15.5817 9.58259 15.4873 9.64852 15.3737C9.85636 15.0154 10.3153 14.8934 10.6736 15.1013C11.0319 15.3091 11.1539 15.768 10.946 16.1263C10.7482 16.4673 10.4643 16.7503 10.1228 16.9471C9.78121 17.1438 9.39395 17.2473 8.99977 17.2473C8.6056 17.2473 8.21834 17.1438 7.87677 16.9471C7.5352 16.7503 7.25131 16.4673 7.05352 16.1263C6.84568 15.768 6.96765 15.3091 7.32594 15.1013Z" fill="#212121"/>
</svg>
